<?xml version="1.0" standalone="no"?>
<!DOCTYPE svg PUBLIC "-//W3C//DTD SVG 20010904//EN"
 "http://www.w3.org/TR/2001/REC-SVG-20010904/DTD/svg10.dtd">
<svg version="1.0" xmlns="http://www.w3.org/2000/svg"
 width="700.000000pt" height="700.000000pt" viewBox="0 0 700.000000 700.000000"
 preserveAspectRatio="xMidYMid meet">
<metadata>
Created by potrace 1.14, written by Peter Selinger 2001-2017
</metadata>
<g transform="translate(0.000000,700.000000) scale(0.100000,-0.100000)"
fill="#000000" stroke="none">
<path d="M3665 5584 c-29 -33 -50 -46 -76 -50 -31 -5 -40 -1 -78 34 l-43 40
-44 -26 c-24 -15 -44 -31 -44 -37 0 -5 13 -32 28 -60 36 -65 81 -95 144 -95
64 0 102 17 165 74 l53 47 -30 60 c-17 32 -31 59 -33 59 -1 -1 -20 -21 -42
-46z"/>
<path d="M3465 5285 c4 -22 7 -48 9 -59 1 -10 10 -22 19 -27 24 -14 118 -21
151 -11 31 9 59 52 69 108 l6 31 -130 -1 -130 0 6 -41z"/>
<path d="M1657 5234 c-1 -1 -39 -4 -85 -7 -164 -12 -352 -81 -482 -177 -162
-120 -274 -286 -334 -493 -34 -117 -37 -143 -41 -327 -3 -132 0 -181 15 -245
48 -212 127 -354 275 -493 168 -158 361 -233 733 -286 19 -2 36 -7 39 -10 6
-6 8 -338 3 -446 -6 -125 -48 -224 -136 -319 l-56 -61 348 0 348 0 -51 53
c-29 28 -66 80 -82 114 -54 108 -60 148 -61 423 l-1 251 103 -2 c115 -2 183
-21 231 -67 16 -15 64 -79 106 -142 120 -180 296 -404 382 -484 91 -86 148
-120 242 -146 80 -22 63 -20 145 -20 37 0 73 -4 79 -8 16 -10 21 -50 27 -212
8 -206 26 -331 68 -455 29 -90 98 -227 111 -222 15 5 95 163 101 202 3 17 10
53 16 80 6 28 15 77 21 109 5 33 12 62 14 65 2 4 6 38 10 76 4 39 10 79 13 90
11 40 13 2055 2 2075 -23 44 -57 10 -100 -99 -17 -44 -22 -82 -25 -195 -4
-163 -16 -1064 -20 -1626 -2 -212 -4 -388 -4 -392 -2 -11 -41 -5 -42 7 -4 41
-8 209 -13 670 -12 1016 -17 1370 -21 1432 -3 35 -14 83 -27 109 -20 44 -94
131 -103 122 -3 -2 -5 -382 -5 -843 -1 -586 -4 -843 -12 -852 -25 -31 -45 -17
-218 157 -63 63 -150 160 -192 215 -43 55 -136 175 -208 268 -71 92 -130 172
-130 177 0 6 35 50 78 98 141 158 188 232 228 355 33 103 30 245 -8 336 -76
183 -186 264 -418 307 -38 7 -774 12 -840 6 l-40 -4 29 -52 c113 -201 108
-177 110 -621 l1 -367 -45 6 c-197 30 -406 166 -526 343 -110 164 -160 338
-164 571 -4 235 42 405 153 569 51 74 106 125 190 174 98 58 175 78 303 80
226 4 436 -58 538 -159 60 -59 101 -149 115 -251 3 -24 8 -46 10 -49 7 -6 41
65 61 127 17 51 22 156 11 210 -18 83 -97 179 -183 221 l-67 33 -258 2 c-142
1 -259 0 -261 -1z m677 -1011 c150 -44 258 -158 299 -315 40 -154 -12 -398
-105 -495 -56 -58 -116 -76 -259 -75 -132 0 -160 7 -181 45 -14 26 -20 742 -7
792 9 29 25 44 64 57 33 11 136 6 189 -9z"/>
<path d="M3555 5128 c-27 -5 -58 -16 -67 -25 -21 -19 -25 -88 -5 -96 6 -2 53
-4 102 -4 108 0 115 2 115 36 0 60 -13 75 -80 93 -8 3 -37 0 -65 -4z"/>
<path d="M3490 4920 c-19 -19 -22 -29 -22 -65 0 -41 0 -41 111 -43 105 -2 109
-1 115 20 10 41 6 58 -19 83 -21 22 -33 25 -95 25 -57 0 -74 -4 -90 -20z"/>
<path d="M3500 4732 l-36 -3 0 -69 c1 -40 5 -70 11 -71 44 -5 193 -4 206 0 13
5 16 19 15 71 l-1 65 -80 5 c-44 3 -96 4 -115 2z"/>
<path d="M3459 4476 c-2 -2 -44 -7 -92 -11 -49 -3 -98 -8 -110 -10 -12 -2 -49
-7 -82 -10 -127 -13 -141 -15 -180 -20 -89 -13 -94 -24 -37 -87 62 -69 100
-80 287 -83 139 -2 168 -6 206 -23 54 -25 79 -47 104 -89 11 -18 23 -33 27
-33 4 0 28 22 54 50 91 98 208 126 354 84 160 -44 254 -137 310 -304 17 -50
22 -215 9 -280 -30 -149 -139 -264 -322 -340 -64 -27 -80 -62 -22 -50 273 58
348 73 416 85 30 5 32 0 44 -90 56 -437 258 -708 620 -829 177 -59 221 -64
693 -65 237 -1 432 1 432 4 0 4 -15 22 -34 42 -49 52 -93 130 -109 193 -10 37
-15 121 -16 260 -4 365 -7 434 -25 467 -9 18 -25 34 -36 38 -11 3 -106 7 -211
7 -149 1 -193 -2 -199 -13 -13 -20 -5 -26 45 -31 28 -4 59 -16 81 -33 64 -49
66 -60 62 -416 l-3 -319 -25 -25 c-14 -14 -41 -30 -60 -35 -33 -9 -256 -8
-295 3 -11 3 -40 10 -65 17 -247 66 -461 343 -539 696 -26 115 -26 367 -1 484
23 107 73 250 111 316 72 127 218 228 359 250 95 15 265 7 323 -15 15 -6 27
-9 27 -6 0 9 143 -56 182 -83 54 -38 92 -79 152 -164 49 -71 60 -79 69 -50 3
9 31 89 62 177 31 88 67 191 81 228 l23 69 -462 -4 c-442 -4 -466 -5 -552 -27
-166 -42 -275 -104 -420 -238 -37 -35 -70 -63 -74 -63 -4 0 -52 47 -108 104
-59 60 -119 112 -145 124 -36 17 -185 61 -263 78 -19 4 -32 7 -87 19 -13 3
-36 8 -52 11 -16 2 -32 6 -35 8 -3 2 -31 7 -61 11 -30 4 -58 9 -62 11 -9 6
-343 15 -349 10z"/>
</g>
</svg>
